<?xml version="1.0" encoding="UTF-8"?>
<!DOCTYPE svg PUBLIC "-//W3C//DTD SVG 1.1//EN" "http://www.w3.org/Graphics/SVG/1.1/DTD/svg11.dtd">
<!-- Creator: CorelDRAW -->
<svg xmlns="http://www.w3.org/2000/svg" xml:space="preserve" width="6.82666in" height="6.82666in" style="shape-rendering:geometricPrecision; text-rendering:geometricPrecision; image-rendering:optimizeQuality; fill-rule:evenodd; clip-rule:evenodd"
viewBox="0 0 6.82666 6.82666"
 xmlns:xlink="http://www.w3.org/1999/xlink">
 <defs>
  <style type="text/css">
   <![CDATA[
    .fil2 {fill:none}
    .fil0 {fill:#00C853;fill-rule:nonzero}
    .fil1 {fill:#00E676;fill-rule:nonzero}
   ]]>
  </style>
 </defs>
 <g id="Layer_x0020_1">
  <metadata id="CorelCorpID_0Corel-Layer"/>
  <path class="fil0" d="M3.41333 1.32694c-0.126764,-3.54331e-005 -0.25435,0.0113819 -0.381602,0.0345827l-0.120972 -0.262488c-0.0755709,-0.16461 -0.270787,-0.236358 -0.434878,-0.160823l-0.333445 0.153083c-0.16398,0.0760551 -0.236213,0.27124 -0.160685,0.435323l0.121012 0.262665c-0.158843,0.129094 -0.296094,0.278362 -0.40902,0.443417l-0.271622 -0.100524c-0.164047,-0.0612362 -0.36076,0.0292559 -0.421472,0.193728l-0.126736 0.344449c-0.0133937,0.0360276 -0.0202047,0.0732717 -0.0205827,0.110488l0 0.00794882c0.00065748,0.045126 0.0107953,0.0900433 0.0301299,0.132252 0.0368307,0.0793504 0.102366,0.140063 0.184181,0.170193l0.272701 0.100567c-0.0220433,0.198516 -0.0149252,0.401268 0.0224213,0.602252l-0.263047 0.120976c-0.164122,0.0755669 -0.23587,0.27072 -0.160819,0.434835l0.154087 0.333311c0.0755315,0.164606 0.270272,0.236354 0.43435,0.160787l0.263508 -0.120972c0.128705,0.159185 0.278008,0.296094 0.442575,0.408874l-0.100559 0.27176c-0.0306181,0.0822677 -0.0267598,0.171307 0.0100669,0.250657 0.036374,0.0798386 0.101878,0.140583 0.18422,0.170819l0.344413 0.127256c0.081815,0.030126 0.170748,0.0266969 0.250654,-0.00968504 0.0793858,-0.0367244 0.13965,-0.102264 0.170264,-0.184531l0.100425 -0.272248c0.0730512,0.00794094 0.14661,0.0119803 0.220433,0.0120827l0 -0.788945c-0.504445,-0.000240157 -0.966661,-0.296276 -1.17759,-0.753843 -0.298909,-0.649638 -0.013815,-1.42112 0.635303,-1.72013 0.171685,-0.0793504 0.353925,-0.119165 0.541374,-0.119165l0.000913386 7.87402e-006 0 -0.788961z"/>
  <path class="fil1" d="M5.7592 3.73367l-0.272598 -0.100394c0.0215551,-0.19852 0.0148228,-0.400819 -0.0225276,-0.602256l0.262661 -0.121004c0.164575,-0.0755394 0.236362,-0.27076 0.160654,-0.435295l-0.153531 -0.332996c-0.0755669,-0.164461 -0.27065,-0.236732 -0.434732,-0.160677l-0.263193 0.121039c-0.128677,-0.159331 -0.277803,-0.296165 -0.442894,-0.409047l0.100421 -0.271587c0.0626929,-0.169886 -0.0243701,-0.358823 -0.193728,-0.42148l-0.344374 -0.127252c-0.164091,-0.0602638 -0.360626,0.0300906 -0.420996,0.19376l-0.100421 0.272146c-0.0720039,-0.00762992 -0.144504,-0.0115394 -0.217276,-0.0116732l-0.00334252 -3.93701e-006 0 0.788961 0.00282283 2.75591e-005c0.503327,0.00146063 0.964075,0.296811 1.17491,0.753949 0.299016,0.6495 0.0139921,1.42112 -0.635197,1.72013 -0.1715,0.0792795 -0.353673,0.118957 -0.541425,0.119028l-0.0005 0 -0.000614173 -3.93701e-006 0 0.788945 0.000594488 0c0.126665,0.000137795 0.254122,-0.0113189 0.381193,-0.0346102l0.121114 0.262665c0.0755315,0.164122 0.270752,0.236362 0.434728,0.160689l0.333453 -0.153465c0.164083,-0.0756693 0.236283,-0.270756 0.160299,-0.434807l-0.12111 -0.263189c0.159295,-0.128571 0.296098,-0.277839 0.408976,-0.442925l0.272217 0.100909c0.0822717,0.0301299 0.171197,0.0268346 0.251173,-0.0100669 0.0788346,-0.0367244 0.13961,-0.102331 0.169748,-0.18415l0.127323 -0.344378c0.0625866,-0.169327 -0.0245079,-0.358264 -0.193831,-0.420988z"/>
  <g id="_490166928">
   <rect id="_490167024" class="fil2" width="6.82666" height="6.82666"/>
   <rect id="_490167120" class="fil2" x="0.853331" y="0.853331" width="5.12" height="5.12"/>
  </g>
 </g>
</svg>
