<?xml version="1.0" encoding="UTF-8"?>
<!DOCTYPE svg PUBLIC "-//W3C//DTD SVG 1.1//EN" "http://www.w3.org/Graphics/SVG/1.1/DTD/svg11.dtd">
<!-- Creator: CorelDRAW -->
<svg xmlns="http://www.w3.org/2000/svg" xml:space="preserve" width="2048px" height="2048px" style="shape-rendering:geometricPrecision; text-rendering:geometricPrecision; image-rendering:optimizeQuality; fill-rule:evenodd; clip-rule:evenodd"
viewBox="0 0 2048 2048"
 xmlns:xlink="http://www.w3.org/1999/xlink">
 <defs>
  <style type="text/css">
   <![CDATA[
    .fil2 {fill:none}
    .fil3 {fill:#00BFA5}
    .fil4 {fill:#1DE9B6}
    .fil0 {fill:#BA68C8}
   ]]>
  </style>
   <clipPath id="id0">
    <path d="M1024 -0.0011811c565.539,0 1024,458.462 1024,1024 0,565.539 -458.462,1024 -1024,1024 -565.539,0 -1024,-458.462 -1024,-1024 0,-565.539 458.462,-1024 1024,-1024z"/>
   </clipPath>
 </defs>
 <g id="Layer_x0020_1">
  <metadata id="CorelCorpID_0Corel-Layer"/>
  <path class="fil0" d="M1024 -0.0011811c565.539,0 1024,458.462 1024,1024 0,565.539 -458.462,1024 -1024,1024 -565.539,0 -1024,-458.462 -1024,-1024 0,-565.539 458.462,-1024 1024,-1024z"/>
  <path class="fil2" d="M1024 -0.0011811c565.539,0 1024,458.462 1024,1024 0,565.539 -458.462,1024 -1024,1024 -565.539,0 -1024,-458.462 -1024,-1024 0,-565.539 458.462,-1024 1024,-1024z"/>
  <path class="fil3" d="M1024 947.643l455.231 -467.534c20.5099,-21.065 54.2351,-21.5351 75.3131,-1.03465 21.0839,20.5063 21.5551,54.2599 1.03465,75.3343l-457.232 469.59 -74.3469 76.356 -455.231 467.536c-20.5099,21.0626 -54.2363,21.5339 -75.3142,1.03465 -21.0827,-20.5075 -21.5551,-54.2599 -1.03465,-75.3355l457.233 -469.591 74.3469 -76.356z"/>
  <path class="fil4" d="M568.769 480.109l455.231 467.534 74.3469 76.356 457.233 469.591c20.5205,21.0744 20.048,54.828 -1.03465,75.3355 -21.078,20.4992 -54.8044,20.0291 -75.3142,-1.03465l-455.231 -467.536 -74.3469 -76.356 -457.232 -469.59c-20.5193,-21.0744 -20.0492,-54.828 1.03465,-75.3343 21.078,-20.5004 54.8032,-20.0303 75.3131,1.03465z"/>
 </g>
</svg>
