<svg xmlns="http://www.w3.org/2000/svg" viewBox="0 0 48 48"><defs><style>.cls-1{fill:#9fdbf3;}.cls-2{fill:#6fabe6;}.cls-3{fill:#b2e5fb;}.cls-4{fill:#82bcf4;}.cls-5{fill:#7c7d7d;}.cls-6{fill:#919191;}.cls-7{fill:#dad7e5;}.cls-8{fill:#edebf2;}.cls-9{fill:#db5669;}.cls-10{fill:#f26674;}.cls-11{fill:#9dcc6b;}.cls-12{fill:#b5e08c;}</style></defs><title>Testing</title><g id="Testing"><path class="cls-1" d="M47,8V32H1V8A2,2,0,0,1,3,6H45A2,2,0,0,1,47,8Z"/><path class="cls-2" d="M1,32H47a0,0,0,0,1,0,0v3a2,2,0,0,1-2,2H3a2,2,0,0,1-2-2V32A0,0,0,0,1,1,32Z"/><polygon class="cls-2" points="28 42 20 42 21 37 27 37 28 42"/><path class="cls-2" d="M18,42H30a2,2,0,0,1,2,2v2a0,0,0,0,1,0,0H16a0,0,0,0,1,0,0V44A2,2,0,0,1,18,42Z"/><path class="cls-3" d="M47,8V30H28A24,24,0,0,1,4,6H45A2,2,0,0,1,47,8Z"/><path class="cls-4" d="M47,32v3H7a3,3,0,0,1-3-3H47Z"/><path class="cls-4" d="M27.6,40H26.06a2.51,2.51,0,0,1-2.46-3H27Z"/><path class="cls-4" d="M32,44H21a2,2,0,0,1-2-2H30A2,2,0,0,1,32,44Z"/><rect class="cls-5" x="7" y="2" width="34" height="6"/><path class="cls-6" d="M41,2V6H14a4,4,0,0,1-4-4H41Z"/><rect class="cls-7" x="7" y="8" width="34" height="18"/><path class="cls-8" d="M41,8V24H26A16,16,0,0,1,10,8H41Z"/><path class="cls-9" d="M37,17a4.93,4.93,0,0,1-.61,2.39,5,5,0,1,1-6.78-6.78A4.93,4.93,0,0,1,32,12,5,5,0,0,1,37,17Z"/><path class="cls-10" d="M37,17a4.93,4.93,0,0,1-.61,2.39A4.93,4.93,0,0,1,34,20a5,5,0,0,1-5-5,4.93,4.93,0,0,1,.61-2.39A4.93,4.93,0,0,1,32,12,5,5,0,0,1,37,17Z"/><path class="cls-11" d="M21,17a4.93,4.93,0,0,1-.61,2.39,5,5,0,1,1-6.78-6.78A4.93,4.93,0,0,1,16,12,5,5,0,0,1,21,17Z"/><path class="cls-12" d="M21,17a4.93,4.93,0,0,1-.61,2.39A4.93,4.93,0,0,1,18,20a5,5,0,0,1-5-5,4.93,4.93,0,0,1,.61-2.39A4.93,4.93,0,0,1,16,12,5,5,0,0,1,21,17Z"/><path class="cls-8" d="M11,6a1,1,0,0,1-.39-.08,1,1,0,0,1-.32-.21A1,1,0,0,1,10,4.62a1.19,1.19,0,0,1,.22-.33,1,1,0,0,1,1.41,0,1,1,0,0,1,0,1.42A1,1,0,0,1,11,6Z"/><path class="cls-8" d="M13.91,6a1,1,0,0,1-.7-1.71,1,1,0,0,1,1.09-.21,1,1,0,0,1,.32.21,1.19,1.19,0,0,1,.22.33,1.07,1.07,0,0,1,0,.76,1.19,1.19,0,0,1-.22.33A1,1,0,0,1,13.91,6Z"/><path class="cls-8" d="M16.87,6a1,1,0,0,1-.71-.29,1.46,1.46,0,0,1-.22-.33A1.22,1.22,0,0,1,15.87,5a1.22,1.22,0,0,1,.07-.38,1.27,1.27,0,0,1,.22-.33,1,1,0,0,1,.9-.27.6.6,0,0,1,.19.06.56.56,0,0,1,.17.09.61.61,0,0,1,.15.12.91.91,0,0,1,.22.33,1,1,0,0,1-.22,1.09A1,1,0,0,1,16.87,6Z"/><path class="cls-8" d="M33.41,19.41a1,1,0,0,1-.7-.29l-2.83-2.83a1,1,0,0,1,1.41-1.41l2.83,2.83a1,1,0,0,1,0,1.41A1,1,0,0,1,33.41,19.41Z"/><path class="cls-8" d="M30.59,19.41a1,1,0,0,1-.71-.29,1,1,0,0,1,0-1.41l2.83-2.83a1,1,0,0,1,1.41,1.41l-2.83,2.83A1,1,0,0,1,30.59,19.41Z"/><path class="cls-8" d="M15.33,19.33a1,1,0,0,1-.7-.29l-1.34-1.33a1,1,0,0,1,1.42-1.42l.62.63,2-2a1,1,0,0,1,1.42,0,1,1,0,0,1,0,1.41L16,19A1,1,0,0,1,15.33,19.33Z"/></g></svg>