<?xml version="1.0" encoding="utf-8"?>
<!-- Generator: Adobe Illustrator 23.0.3, SVG Export Plug-In . SVG Version: 6.00 Build 0)  -->
<svg version="1.1" id="Layer_1" xmlns="http://www.w3.org/2000/svg" xmlns:xlink="http://www.w3.org/1999/xlink" x="0px" y="0px"
	 viewBox="0 0 32 32" style="enable-background:new 0 0 32 32;" xml:space="preserve">
<style type="text/css">
	.st0{clip-path:url(#SVGID_2_);}
	.st1{clip-path:url(#SVGID_4_);}
</style>
<g>
	<g>
		<path d="M16,19c-0.5527344,0-1-0.4472656-1-1V4c0-0.5527344,0.4472656-1,1-1s1,0.4472656,1,1v14
			C17,18.5527344,16.5527344,19,16,19z"/>
	</g>
	<g>
		<path d="M16,29c-0.5527344,0-1-0.4472656-1-1v-4c0-0.5527344,0.4472656-1,1-1s1,0.4472656,1,1v4
			C17,28.5527344,16.5527344,29,16,29z"/>
	</g>
	<g>
		<path d="M16,25c-2.2060547,0-4-1.7939453-4-4s1.7939453-4,4-4s4,1.7939453,4,4S18.2060547,25,16,25z M16,19
			c-1.1025391,0-2,0.8974609-2,2s0.8974609,2,2,2s2-0.8974609,2-2S17.1025391,19,16,19z"/>
	</g>
	<g>
		<path d="M6,13c-0.5527344,0-1-0.4472656-1-1V4c0-0.5527344,0.4472656-1,1-1s1,0.4472656,1,1v8C7,12.5527344,6.5527344,13,6,13z"/>
	</g>
	<g>
		<path d="M6,29c-0.5527344,0-1-0.4472656-1-1V18c0-0.5527344,0.4472656-1,1-1s1,0.4472656,1,1v10C7,28.5527344,6.5527344,29,6,29z"
			/>
	</g>
	<g>
		<path d="M6,19c-2.2060547,0-4-1.7939453-4-4s1.7939453-4,4-4s4,1.7939453,4,4S8.2060547,19,6,19z M6,13
			c-1.1025391,0-2,0.8974609-2,2s0.8974609,2,2,2s2-0.8974609,2-2S7.1025391,13,6,13z"/>
	</g>
	<g>
		<path d="M26,10c-0.5527344,0-1-0.4472656-1-1V4c0-0.5527344,0.4472656-1,1-1s1,0.4472656,1,1v5C27,9.5527344,26.5527344,10,26,10z
			"/>
	</g>
	<g>
		<path d="M26,29c-0.5527344,0-1-0.4472656-1-1V15c0-0.5527344,0.4472656-1,1-1s1,0.4472656,1,1v13
			C27,28.5527344,26.5527344,29,26,29z"/>
	</g>
	<g>
		<path d="M26,16c-2.2060547,0-4-1.7939453-4-4s1.7939453-4,4-4s4,1.7939453,4,4S28.2060547,16,26,16z M26,10
			c-1.1025391,0-2,0.8974609-2,2s0.8974609,2,2,2s2-0.8974609,2-2S27.1025391,10,26,10z"/>
	</g>
</g>
</svg>
