<?xml version="1.0" encoding="UTF-8"?>
<!DOCTYPE svg PUBLIC "-//W3C//DTD SVG 1.1//EN" "http://www.w3.org/Graphics/SVG/1.1/DTD/svg11.dtd">
<!-- Creator: CorelDRAW -->
<svg xmlns="http://www.w3.org/2000/svg" xml:space="preserve" width="2048px" height="2048px" style="shape-rendering:geometricPrecision; text-rendering:geometricPrecision; image-rendering:optimizeQuality; fill-rule:evenodd; clip-rule:evenodd"
viewBox="0 0 2048 2048"
 xmlns:xlink="http://www.w3.org/1999/xlink">
 <defs>
  <style type="text/css">
   <![CDATA[
    .fil2 {fill:none}
    .fil0 {fill:#F09E1A}
    .fil1 {fill:#FBC02D}
   ]]>
  </style>
 </defs>
 <g id="Layer_x0020_1">
  <metadata id="CorelCorpID_0Corel-Layer"/>
  <path class="fil0" d="M256.029 575.999l0 -1.12205 -0.0259843 -106.669c-0.0814961,-9.86339 1.82126,-19.4811 5.4815,-28.3347 3.70276,-8.95867 9.15473,-17.1626 16.1114,-24.0851 6.93071,-6.89646 15.124,-12.2847 24.0555,-15.9532 9.05316,-3.71693 18.6662,-5.68465 28.3099,-5.68465l338.131 0c15.2256,0 29.7355,4.70315 41.8677,12.9614 11.7862,8.02323 21.2516,19.5 26.8488,33.3603l0.0188977 -0.00708662 58.089 135.406 0.0555119 0.127559 -538.943 0z"/>
  <path class="fil1" d="M1730.45 701.451l-0.284646 157.115c12.574,3.07796 24.0473,8.2382 33.6815,15.6992 17.3929,13.4669 28.0099,32.9882 28.0477,59.3634l-0.0106299 628.231 0.120473 0c0,25.3276 -10.441,48.3012 -27.3213,64.9749 -16.728,16.5225 -39.7666,26.7402 -65.152,26.7402l-94.1646 0c-1.21654,0.154725 -2.55236,0.274016 -4.26851,0.274016l-1219.11 0c-34.5414,0 -65.9268,-13.9394 -88.7044,-36.4406 -22.9299,-22.6512 -37.1386,-53.8737 -37.1386,-88.2485l0.120473 0 -0.232677 -953.161 538.943 0 0.861024 2.00788 811.848 0.673229 0 -0.119291c34.6607,0 65.2595,13.4303 87.3225,35.4969 22.1917,22.1929 35.563,52.9512 35.563,87.3934l-0.120473 0z"/>
  <path class="fil0" d="M1728 858.566l-1198.02 0c-7.98544,0 -14.8217,3.15236 -19.6429,8.20631 -5.43544,5.69764 -8.67402,13.8543 -8.67402,22.95l0 764.127 -61.4469 0 0 -764.127c0,-25.1008 9.60001,-48.3012 25.7173,-65.1945 16.1067,-16.8815 38.4272,-27.4087 64.0465,-27.4087l1198.02 0 0 61.4469z"/>
  <rect class="fil2" x="255.999" y="256" width="1536" height="1536"/>
  <rect class="fil2" width="2048" height="2048"/>
 </g>
</svg>
