<svg xmlns="http://www.w3.org/2000/svg" viewBox="0 0 32 32"><title>12-Picture</title><g id="_12-Picture" data-name="12-Picture"><path d="M28,1H8A3,3,0,0,0,5,4V5H4A3,3,0,0,0,1,8V28a3,3,0,0,0,3,3H24a3,3,0,0,0,3-3V27h1a3,3,0,0,0,3-3V4A3,3,0,0,0,28,1ZM25,21.59l-4.29-4.29a1,1,0,0,0-1.41,0L15,21.59l-4.29-4.29a1,1,0,0,0-1.41,0L3,23.59V8A1,1,0,0,1,4,7H24a1,1,0,0,1,1,1ZM29,24a1,1,0,0,1-1,1H27V8a3,3,0,0,0-3-3H7V4A1,1,0,0,1,8,3H28a1,1,0,0,1,1,1Z"/><path d="M15,10a3,3,0,1,0,3,3A3,3,0,0,0,15,10Zm0,4a1,1,0,1,1,1-1A1,1,0,0,1,15,14Z"/></g></svg>