<?xml version="1.0" encoding="utf-8"?>
<!-- Generator: Adobe Illustrator 22.1.0, SVG Export Plug-In . SVG Version: 6.00 Build 0)  -->
<svg version="1.1" id="Layer_1" xmlns="http://www.w3.org/2000/svg" xmlns:xlink="http://www.w3.org/1999/xlink" x="0px" y="0px"
	 viewBox="0 0 256 256" style="enable-background:new 0 0 256 256;" xml:space="preserve">
<style type="text/css">
	.st0{fill:#231F20;}
	.st1{fill:#FFEFE4;}
	.st2{fill:#69EBFC;}
	.st3{fill:#5FD4E3;}
	.st4{fill:#A1F1FC;}
	.st5{fill:#D476E2;}
	.st6{fill:#B665C2;}
	.st7{fill:#EA82FA;}
	.st8{fill:#FFF7F2;}
	.st9{fill:#FF8354;}
	.st10{fill:#FFA172;}
	.st11{fill:#6770E6;}
	.st12{fill:#5861C7;}
	.st13{fill:#E0734A;}
	.st14{fill:#EDD4C2;}
	.st15{fill:#CC6944;}
	.st16{fill:#858EFF;}
	.st17{fill:#C76642;}
	.st18{fill:#FFFFFF;}
	.st19{fill:#FFDEC7;}
	.st20{fill:#4E56B0;}
	.st21{fill:#94529E;}
	.st22{fill:#41B6C5;}
	.st23{fill:#9847A4;}
	.st24{fill:#C2552C;}
	.st25{fill:#CFB6A4;}
</style>
<g>
	<path class="st16" d="M215,116H41c-4.418,0-8-3.582-8-8v0c0-4.418,3.582-8,8-8h174c4.418,0,8,3.582,8,8v0
		C223,112.418,219.418,116,215,116z"/>
	<path class="st11" d="M213,116H43l18.038,126.263C62.164,250.145,68.914,256,76.877,256h102.247
		c7.962,0,14.713-5.855,15.839-13.737L213,116z"/>
	<path class="st12" d="M179.944,250H76.056c-7.23,0-13.464-4.682-15.527-11.303l0.509,3.565C62.164,250.145,68.914,256,76.877,256
		h102.247c7.962,0,14.713-5.855,15.839-13.737l0.509-3.565C193.409,245.318,187.175,250,179.944,250z"/>
	<path class="st12" d="M82.665,136h-0.93c-4.141,0-7.377,3.576-6.965,7.697l8.6,86c0.358,3.578,3.369,6.303,6.965,6.303h0.93
		c4.141,0,7.377-3.576,6.965-7.697l-8.6-86C89.273,138.725,86.261,136,82.665,136z"/>
	<path class="st12" d="M165.165,236h-0.93c-4.141,0-7.377-3.576-6.965-7.697l8.6-86c0.358-3.578,3.369-6.303,6.965-6.303h0.93
		c4.141,0,7.377,3.576,6.965,7.697l-8.6,86C171.773,233.275,168.761,236,165.165,236z"/>
	<path class="st12" d="M128.5,136h-1c-3.866,0-7,3.134-7,7v86c0,3.866,3.134,7,7,7h1c3.866,0,7-3.134,7-7v-86
		C135.5,139.134,132.366,136,128.5,136z"/>
	<path class="st2" d="M148.364,100V12.121C148.364,5.427,142.937,0,136.242,0H60.485C53.79,0,48.364,5.427,48.364,12.121V100
		H148.364z"/>
	<path class="st3" d="M73.468,81.402L90.488,100h10.697L79.275,76.059c-3.295-3.601-3.295-9.122,0-12.723L137.234,0h-11.163
		L73.57,57.372l-5.467,6.001c-2.926,3.467-2.959,8.521-0.097,12.023L73.468,81.402z"/>
	<path class="st4" d="M136.242,0H60.485C53.79,0,48.364,5.427,48.364,12.121v6C48.364,11.427,53.79,6,60.485,6h75.758
		c6.694,0,12.121,5.427,12.121,12.121v-6C148.364,5.427,142.937,0,136.242,0z"/>
	<path class="st2" d="M131.744,6l5.447-5.952C136.877,0.023,136.562,0,136.242,0h-10.171l-5.491,6H131.744z"/>
	<path class="st5" d="M208.364,100V42.121c0-6.694-5.427-12.121-12.121-12.121h-75.758c-6.694,0-12.121,5.427-12.121,12.121V100
		H208.364z"/>
	<path class="st7" d="M196.242,30h-75.758c-6.694,0-12.121,5.427-12.121,12.121v6c0-6.694,5.427-12.121,12.121-12.121h75.758
		c6.694,0,12.121,5.427,12.121,12.121v-6C208.364,35.427,202.937,30,196.242,30z"/>
	<path class="st6" d="M136.817,100c-0.076-2.381,0.737-4.784,2.458-6.665L197.234,30h-11.163L133.57,87.372l-5.467,6.001
		c-1.607,1.904-2.336,4.286-2.197,6.627H136.817z"/>
	<path class="st5" d="M191.744,36l5.447-5.952c-0.314-0.024-0.628-0.048-0.948-0.048h-10.171l-5.491,6H191.744z"/>
</g>
</svg>
