<?xml version="1.0" encoding="iso-8859-1"?>
<!-- Generator: Adobe Illustrator 24.0.3, SVG Export Plug-In . SVG Version: 6.00 Build 0)  -->
<svg version="1.1" xmlns="http://www.w3.org/2000/svg" xmlns:xlink="http://www.w3.org/1999/xlink" x="0px" y="0px"
	 viewBox="0 0 64 64" style="enable-background:new 0 0 64 64;" xml:space="preserve">
<g id="video-stream-player">
	<path style="fill:#605491;" d="M62.92,9.268H1.08C0.483,9.268,0,9.752,0,10.348v43.304c0,0.596,0.483,1.08,1.08,1.08h61.84
		c0.597,0,1.08-0.484,1.08-1.08V10.348C64,9.752,63.517,9.268,62.92,9.268z M61.84,52.572H2.16V11.428H61.84V52.572z M11.297,47.25
		H6.771v-2.16h4.526v-3.382h2.16v3.382h43.772v2.16H13.457v3.382h-2.16V47.25z M25.626,38.814c0.17,0.101,0.361,0.152,0.552,0.152
		c0.177,0,0.355-0.044,0.516-0.131l14.231-7.742c0.348-0.189,0.564-0.553,0.564-0.949s-0.216-0.759-0.564-0.949l-14.231-7.742
		c-0.333-0.182-0.74-0.175-1.067,0.021c-0.328,0.195-0.528,0.547-0.528,0.928v15.485C25.098,38.266,25.298,38.619,25.626,38.814z
		 M27.258,24.218l10.891,5.925l-10.891,5.925V24.218z"/>
	<path style="fill:#D4C3F7;" d="M2.164,11.43v41.142h59.672V11.43H2.164z M25.1,22.402c0-0.378,0.194-0.734,0.529-0.929
		c0.324-0.194,0.734-0.205,1.069-0.022l14.222,7.742c0.356,0.194,0.572,0.551,0.572,0.95s-0.216,0.756-0.572,0.95l-14.222,7.742
		c-0.162,0.086-0.345,0.13-0.518,0.13c-0.194,0-0.389-0.054-0.551-0.151c-0.335-0.194-0.529-0.551-0.529-0.929V22.402z
		 M57.226,47.249H13.459v3.38H11.3v-3.38H6.775v-2.16H11.3v-3.38h2.16v3.38h43.766V47.249z"/>
</g>
<g id="Layer_1">
</g>
</svg>
